<?xml version="1.0" encoding="UTF-8" standalone="no"?><svg xmlns="http://www.w3.org/2000/svg" xmlns:xlink="http://www.w3.org/1999/xlink" contentScriptType="application/ecmascript" contentStyleType="text/css" height="296px" preserveAspectRatio="none" style="width:675px;height:296px;" version="1.1" viewBox="0 0 675 296" width="675px" zoomAndPan="magnify"><defs><filter height="300%" id="f1plvv060cpekh" width="300%" x="-1" y="-1"><feGaussianBlur result="blurOut" stdDeviation="2.0"/><feColorMatrix in="blurOut" result="blurOut2" type="matrix" values="0 0 0 0 0 0 0 0 0 0 0 0 0 0 0 0 0 0 .4 0"/><feOffset dx="4.0" dy="4.0" in="blurOut2" result="blurOut3"/><feBlend in="SourceGraphic" in2="blurOut3" mode="normal"/></filter></defs><g><!--cluster chariott--><polygon fill="#FFFFFF" filter="url(#f1plvv060cpekh)" points="475,42,485,32,653,32,653,220,643,230,475,230,475,42" style="stroke: #000000; stroke-width: 1.5;"/><line style="stroke: #000000; stroke-width: 1.5;" x1="643" x2="652" y1="42" y2="33"/><line style="stroke: #000000; stroke-width: 1.5;" x1="475" x2="643" y1="42" y2="42"/><line style="stroke: #000000; stroke-width: 1.5;" x1="643" x2="643" y1="42" y2="230"/><text fill="#000000" font-family="sans-serif" font-size="14" font-weight="bold" lengthAdjust="spacingAndGlyphs" textLength="63" x="528.5" y="57.9951">Chariott</text><!--entity Service Registry--><rect fill="#FEFECE" filter="url(#f1plvv060cpekh)" height="36.2969" style="stroke: #A80036; stroke-width: 1.5;" width="130" x="499" y="80"/><rect fill="#FEFECE" height="5" style="stroke: #A80036; stroke-width: 1.5;" width="10" x="494" y="85"/><rect fill="#FEFECE" height="5" style="stroke: #A80036; stroke-width: 1.5;" width="10" x="494" y="106.2969"/><text fill="#000000" font-family="sans-serif" font-size="14" lengthAdjust="spacingAndGlyphs" textLength="110" x="509" y="102.9951">Service Registry</text><!--entity Intent Broker--><rect fill="#FEFECE" filter="url(#f1plvv060cpekh)" height="36.2969" style="stroke: #A80036; stroke-width: 1.5;" width="110" x="509" y="151"/><rect fill="#FEFECE" height="5" style="stroke: #A80036; stroke-width: 1.5;" width="10" x="504" y="156"/><rect fill="#FEFECE" height="5" style="stroke: #A80036; stroke-width: 1.5;" width="10" x="504" y="177.2969"/><text fill="#000000" font-family="sans-serif" font-size="14" lengthAdjust="spacingAndGlyphs" textLength="90" x="519" y="173.9951">Intent Broker</text><!--entity "Provider" Application--><rect fill="#FEFECE" filter="url(#f1plvv060cpekh)" height="36.2969" style="stroke: #A80036; stroke-width: 1.5;" width="165" x="17.5" y="198"/><rect fill="#FEFECE" height="5" style="stroke: #A80036; stroke-width: 1.5;" width="10" x="12.5" y="203"/><rect fill="#FEFECE" height="5" style="stroke: #A80036; stroke-width: 1.5;" width="10" x="12.5" y="224.2969"/><text fill="#000000" font-family="sans-serif" font-size="14" lengthAdjust="spacingAndGlyphs" textLength="145" x="27.5" y="220.9951">"Provider" Application</text><!--entity chariott.runtime--><ellipse cx="316" cy="180" fill="#FEFECE" filter="url(#f1plvv060cpekh)" rx="8" ry="8" style="stroke: #A80036; stroke-width: 2.0;"/><text fill="#000000" font-family="sans-serif" font-size="14" lengthAdjust="spacingAndGlyphs" textLength="109" x="261.5" y="209.9951">chariott.runtime</text><!--entity chariott.provider--><ellipse cx="316" cy="253" fill="#FEFECE" filter="url(#f1plvv060cpekh)" rx="8" ry="8" style="stroke: #A80036; stroke-width: 2.0;"/><text fill="#000000" font-family="sans-serif" font-size="14" lengthAdjust="spacingAndGlyphs" textLength="112" x="260" y="282.9951">chariott.provider</text><!--entity "Consuming" Application--><rect fill="#FEFECE" filter="url(#f1plvv060cpekh)" height="36.2969" style="stroke: #A80036; stroke-width: 1.5;" width="188" x="6" y="127"/><rect fill="#FEFECE" height="5" style="stroke: #A80036; stroke-width: 1.5;" width="10" x="1" y="132"/><rect fill="#FEFECE" height="5" style="stroke: #A80036; stroke-width: 1.5;" width="10" x="1" y="153.2969"/><text fill="#000000" font-family="sans-serif" font-size="14" lengthAdjust="spacingAndGlyphs" textLength="168" x="16" y="149.9951">"Consuming" Application</text><!--link "Provider" Application to chariott.runtime--><path d="M182.51,202.29 C227.13,194.78 278.02,186.22 301.65,182.25 " fill="none" id="&quot;Provider&quot; Application-chariott.runtime" style="stroke: #A80036; stroke-width: 1.0;"/><polygon fill="#A80036" points="306.79,181.38,297.2514,178.9275,301.8592,182.2089,298.5777,186.8167,306.79,181.38" style="stroke: #A80036; stroke-width: 1.0;"/><!--link "Provider" Application to chariott.provider--><path d="M182.51,230.09 C230.71,238.43 286.22,248.02 306.79,251.58 " fill="none" id="&quot;Provider&quot; Application-chariott.provider" style="stroke: #A80036; stroke-width: 1.0;"/><!--link "Consuming" Application to chariott.runtime--><path d="M194.24,160.25 C235.98,167.08 280.56,174.37 302.01,177.87 " fill="none" id="&quot;Consuming&quot; Application-chariott.runtime" style="stroke: #A80036; stroke-width: 1.0;"/><polygon fill="#A80036" points="306.94,178.68,298.6972,173.2897,302.0046,177.8789,297.4154,181.1863,306.94,178.68" style="stroke: #A80036; stroke-width: 1.0;"/><!--link chariott.runtime to chariott--><path d="M325.18,181.4 C346.19,184.985 404.13,194.8775 457.5575,204 C460.8967,204.5702 464.2183,205.1373 467.5122,205.6997 C469.1591,205.9809 470.7991,206.2609 472.4309,206.5396 C473.2467,206.6789 474.0606,206.8178 474.8722,206.9564 " fill="none" id="chariott.runtime-chariott" style="stroke: #A80036; stroke-width: 1.0;"/><!--link chariott.provider to chariott--><path d="M330.15,251.34 C355.235,248.18 411.985,241.03 463.1775,234.58 C469.5766,233.7737 475.8888,232.9784 482.0415,232.2032 C485.1178,231.8156 488.1543,231.433 491.1418,231.0566 C492.6355,230.8684 494.117,230.6817 495.5851,230.4968 C496.3192,230.4043 497.0499,230.3122 497.7772,230.2206 C498.1408,230.1748 498.5035,230.1291 498.8654,230.0835 " fill="none" id="chariott.provider-chariott" style="stroke: #A80036; stroke-width: 1.0;"/><polygon fill="#A80036" points="325.18,251.97,334.6036,254.8328,330.142,251.3551,333.6198,246.8936,325.18,251.97" style="stroke: #A80036; stroke-width: 1.0;"/><!--link Intent Broker to Service Registry--><!--link "Consuming" Application to "Provider" Application--><!--link "Consuming" Application to Service Registry--><!--
@startuml

left to right direction 
["Provider" Application] -down-> chariott.runtime
["Provider" Application] - chariott.provider
["Consuming" Application] - -> chariott.runtime


node "Chariott" as chariott {
  [Service Registry]
  [Intent Broker]
  [Intent Broker]
}

chariott -up- - chariott.runtime
chariott -up- -> chariott.provider

[Service Registry]
[Intent Broker]

[Service Registry] -[hidden]left-> [Intent Broker]
["Provider" Application] -[hidden]left-> ["Consuming" Application]
["Consuming" Application] -[hidden]down-> [Service Registry]

@enduml

PlantUML version 1.2018.13(Mon Nov 26 09:11:51 PST 2018)
(GPL source distribution)
Java Runtime: OpenJDK Runtime Environment
JVM: OpenJDK 64-Bit Server VM
Java Version: 11.0.18+10-post-Ubuntu-0ubuntu120.04.1
Operating System: Linux
OS Version: 5.10.16.3-microsoft-standard-WSL2
Default Encoding: UTF-8
Language: en
Country: null
--></g></svg>